<?xml version="1.0" standalone="no"?>
<!DOCTYPE svg PUBLIC "-//W3C//DTD SVG 20010904//EN"
 "http://www.w3.org/TR/2001/REC-SVG-20010904/DTD/svg10.dtd">
<svg version="1.0" xmlns="http://www.w3.org/2000/svg"
 width="512.000000pt" height="512.000000pt" viewBox="0 0 512.000000 512.000000"
 preserveAspectRatio="xMidYMid meet">
<metadata>
Created by potrace 1.11, written by Peter Selinger 2001-2013
</metadata>
<g transform="translate(0.000000,512.000000) scale(0.100000,-0.100000)"
fill="#000000" stroke="none">
<path d="M0 2560 l0 -2560 2560 0 2560 0 0 2560 0 2560 -2560 0 -2560 0 0
-2560z m3353 2033 c3 -10 20 -58 37 -108 17 -49 34 -101 36 -114 3 -13 11 -35
18 -50 7 -14 25 -66 40 -116 16 -49 35 -106 42 -125 8 -19 16 -44 19 -55 2
-11 15 -51 29 -90 l25 -70 -26 -14 c-14 -7 -31 -14 -37 -16 -6 -1 -24 -8 -41
-14 -42 -18 -176 -62 -202 -67 -12 -2 -35 -9 -50 -15 -34 -13 -211 -61 -238
-64 -11 -2 -40 -8 -64 -15 -25 -6 -56 -13 -70 -15 -14 -2 -26 -4 -26 -5 0 -1
-9 -3 -20 -5 -11 -2 -49 -11 -85 -19 -35 -8 -67 -13 -72 -10 -4 3 -8 0 -8 -6
0 -7 -8 -9 -22 -5 -16 5 -20 4 -13 -3 7 -8 45 -6 130 8 66 11 129 19 140 19
36 1 119 11 208 27 48 8 92 12 97 9 5 -3 11 -1 15 5 3 5 20 9 38 9 18 -1 75 6
127 16 52 9 115 19 139 21 25 3 63 9 85 14 48 11 33 18 296 -156 181 -120 240
-165 240 -184 0 -6 -19 -11 -42 -12 -75 -3 -161 -12 -304 -31 -102 -14 -127
-16 -181 -17 -30 0 -32 -21 -11 -124 10 -48 16 -92 13 -96 -3 -5 -1 -11 4 -14
5 -3 9 -24 9 -46 1 -53 8 -63 41 -55 77 20 80 19 79 -25 0 -22 -4 -43 -9 -46
-5 -3 -7 -9 -4 -14 3 -4 -2 -46 -11 -92 -9 -45 -16 -95 -16 -110 0 -15 -4 -30
-9 -34 -5 -3 -7 -10 -4 -15 4 -5 -1 -45 -10 -89 -9 -44 -18 -101 -21 -127 -9
-105 -11 -108 -164 -202 -56 -34 -258 -132 -340 -165 -25 -10 -65 -26 -90 -36
-25 -10 -70 -27 -100 -38 -30 -10 -71 -25 -90 -31 -103 -37 -185 -59 -194 -54
-8 4 -8 2 -1 -5 8 -8 21 -9 48 -1 20 5 52 12 70 14 101 13 568 138 680 183 21
9 44 15 52 15 8 0 15 3 15 7 0 4 6 7 13 8 6 0 39 11 72 22 l60 22 28 -34 c16
-18 71 -91 123 -163 51 -71 98 -135 103 -142 12 -13 149 -224 178 -273 75
-125 134 -265 131 -307 -2 -22 -6 -23 -113 -25 -167 -3 -181 -4 -194 -12 -6
-4 -18 -6 -25 -3 -7 3 -55 -4 -107 -14 -52 -11 -109 -22 -128 -25 -18 -2 -59
-12 -90 -21 -31 -9 -63 -17 -71 -18 -34 -4 -356 -106 -490 -155 -47 -17 -107
-40 -135 -50 -27 -10 -81 -30 -120 -44 -38 -15 -77 -28 -85 -30 -8 -2 -31 -11
-50 -19 -50 -22 -238 -94 -435 -168 -96 -35 -260 -90 -280 -93 -11 -2 -32 -9
-48 -15 -15 -6 -38 -13 -50 -15 -12 -3 -58 -16 -102 -29 -69 -21 -127 -34
-185 -42 -8 -1 -22 -5 -30 -8 -70 -25 -450 -48 -450 -27 0 5 5 21 11 37 6 15
13 39 15 52 3 13 11 39 19 59 8 19 15 43 15 53 0 11 5 19 11 19 5 0 8 4 4 10
-3 5 1 26 10 46 8 20 15 45 15 55 0 11 5 19 12 19 6 0 9 3 5 6 -3 3 1 25 10
47 8 23 16 51 19 61 2 11 10 40 19 65 8 25 16 51 16 56 1 6 10 35 21 65 11 30
21 65 24 78 2 12 13 44 23 70 10 26 19 51 18 55 0 9 28 98 56 177 10 30 20 64
22 75 2 11 10 40 20 65 9 25 19 56 21 69 3 13 12 40 20 59 8 19 16 48 19 63
10 57 24 79 48 79 13 0 27 -3 30 -6 11 -12 98 -18 224 -18 123 0 153 7 120 28
-79 48 -249 164 -332 225 -119 88 -299 263 -338 327 -27 44 -40 113 -27 135 4
6 101 11 236 14 263 5 322 9 450 30 52 8 122 18 156 21 35 3 94 12 131 20 38
8 73 12 77 9 5 -3 11 -1 14 3 3 5 18 9 33 10 15 0 59 8 96 17 37 8 72 13 77
10 5 -3 11 -1 15 4 3 5 13 9 23 9 9 -1 53 7 97 17 43 10 86 19 95 19 18 2 202
44 245 57 26 7 25 8 -10 3 -22 -3 -59 -7 -82 -9 -23 -2 -81 -11 -128 -20 -48
-9 -90 -14 -93 -11 -3 3 -11 1 -18 -5 -8 -6 -20 -9 -27 -6 -7 2 -62 -4 -122
-14 -61 -11 -118 -17 -127 -15 -10 2 -21 0 -24 -6 -3 -5 -15 -7 -26 -5 -10 3
-63 -1 -116 -9 -168 -26 -239 -31 -560 -40 l-242 -7 39 94 c22 52 49 116 60
142 15 35 21 70 21 121 l0 73 -64 -2 c-35 -1 -68 -5 -73 -8 -5 -3 -38 -5 -73
-5 -36 0 -141 -5 -233 -11 -162 -12 -261 -8 -255 10 9 24 326 243 477 331 105
60 94 43 140 213 13 44 31 110 42 147 11 38 22 78 24 90 13 67 41 158 48 158
4 0 6 4 3 9 -3 5 1 28 10 52 8 24 16 55 18 69 2 14 10 48 18 75 8 28 25 88 38
135 12 47 29 107 37 133 8 26 16 55 17 64 3 17 35 34 50 25 4 -2 31 -6 60 -7
28 -1 125 -6 216 -11 271 -15 891 -7 920 11 5 3 34 6 62 5 64 -2 192 8 268 19
83 13 87 12 93 -6z"/>
<path d="M3000 2826 c0 -2 7 -7 16 -10 8 -3 12 -2 9 4 -6 10 -25 14 -25 6z"/>
</g>
</svg>
